<mxfile host="app.diagrams.net" agent="Mozilla/5.0 (Windows NT 10.0; Win64; x64) AppleWebKit/537.36 (KHTML, like Gecko) Chrome/135.0.0.0 Safari/537.36 Edg/135.0.0.0" version="26.2.13" pages="2">
  <diagram id="C5RBs43oDa-KdzZeNtuy" name="Page-1">
    <mxGraphModel dx="855" dy="1289" grid="1" gridSize="10" guides="1" tooltips="1" connect="1" arrows="1" fold="1" page="1" pageScale="1" pageWidth="827" pageHeight="1169" math="0" shadow="0">
      <root>
        <mxCell id="WIyWlLk6GJQsqaUBKTNV-0" />
        <mxCell id="WIyWlLk6GJQsqaUBKTNV-1" parent="WIyWlLk6GJQsqaUBKTNV-0" />
        <mxCell id="G33JyOcpM93UeFImrhVr-0" value="&lt;div&gt;&lt;i&gt;&amp;lt;&amp;lt;interface&amp;gt;&amp;gt;&lt;/i&gt;&lt;/div&gt;&lt;i&gt;Parse&lt;/i&gt;" style="swimlane;fontStyle=0;childLayout=stackLayout;horizontal=1;startSize=38;fillColor=none;horizontalStack=0;resizeParent=1;resizeParentMax=0;resizeLast=0;collapsible=1;marginBottom=0;whiteSpace=wrap;html=1;" parent="WIyWlLk6GJQsqaUBKTNV-1" vertex="1">
          <mxGeometry x="210" y="760" width="290" height="90" as="geometry" />
        </mxCell>
        <mxCell id="G33JyOcpM93UeFImrhVr-2" value="+ parseJson(doc: QJsonDocument): ChartData" style="text;strokeColor=none;fillColor=none;align=left;verticalAlign=top;spacingLeft=4;spacingRight=4;overflow=hidden;rotatable=0;points=[[0,0.5],[1,0.5]];portConstraint=eastwest;whiteSpace=wrap;html=1;fontStyle=2" parent="G33JyOcpM93UeFImrhVr-0" vertex="1">
          <mxGeometry y="38" width="290" height="26" as="geometry" />
        </mxCell>
        <mxCell id="TfS-SFnpE8Rlo6a1KrcC-27" value="+ parseSql(query: QSqlQuery): ChartData" style="text;strokeColor=none;fillColor=none;align=left;verticalAlign=top;spacingLeft=4;spacingRight=4;overflow=hidden;rotatable=0;points=[[0,0.5],[1,0.5]];portConstraint=eastwest;whiteSpace=wrap;html=1;fontStyle=2" vertex="1" parent="G33JyOcpM93UeFImrhVr-0">
          <mxGeometry y="64" width="290" height="26" as="geometry" />
        </mxCell>
        <mxCell id="G33JyOcpM93UeFImrhVr-12" style="edgeStyle=elbowEdgeStyle;rounded=0;orthogonalLoop=1;jettySize=auto;html=1;exitX=0.5;exitY=0;exitDx=0;exitDy=0;elbow=vertical;endArrow=none;startFill=0;dashed=1;" parent="WIyWlLk6GJQsqaUBKTNV-1" source="G33JyOcpM93UeFImrhVr-4" target="G33JyOcpM93UeFImrhVr-11" edge="1">
          <mxGeometry relative="1" as="geometry">
            <mxPoint x="620" y="813" as="targetPoint" />
          </mxGeometry>
        </mxCell>
        <mxCell id="G33JyOcpM93UeFImrhVr-4" value="XYDataParse" style="swimlane;fontStyle=1;align=center;verticalAlign=top;childLayout=stackLayout;horizontal=1;startSize=26;horizontalStack=0;resizeParent=1;resizeParentMax=0;resizeLast=0;collapsible=1;marginBottom=0;whiteSpace=wrap;html=1;" parent="WIyWlLk6GJQsqaUBKTNV-1" vertex="1">
          <mxGeometry x="577.5" y="863" width="315" height="78" as="geometry" />
        </mxCell>
        <mxCell id="TfS-SFnpE8Rlo6a1KrcC-35" value="+ parseSql(query: QSqlQuery): ChartData" style="text;strokeColor=none;fillColor=none;align=left;verticalAlign=top;spacingLeft=4;spacingRight=4;overflow=hidden;rotatable=0;points=[[0,0.5],[1,0.5]];portConstraint=eastwest;whiteSpace=wrap;html=1;" vertex="1" parent="G33JyOcpM93UeFImrhVr-4">
          <mxGeometry y="26" width="315" height="26" as="geometry" />
        </mxCell>
        <mxCell id="TfS-SFnpE8Rlo6a1KrcC-34" value="+ parseJson(doc: QJsonDocument): ChartData" style="text;strokeColor=none;fillColor=none;align=left;verticalAlign=top;spacingLeft=4;spacingRight=4;overflow=hidden;rotatable=0;points=[[0,0.5],[1,0.5]];portConstraint=eastwest;whiteSpace=wrap;html=1;" vertex="1" parent="G33JyOcpM93UeFImrhVr-4">
          <mxGeometry y="52" width="315" height="26" as="geometry" />
        </mxCell>
        <mxCell id="G33JyOcpM93UeFImrhVr-13" style="edgeStyle=elbowEdgeStyle;rounded=0;orthogonalLoop=1;jettySize=auto;html=1;exitX=0.5;exitY=1;exitDx=0;exitDy=0;elbow=vertical;endArrow=none;startFill=0;dashed=1;" parent="WIyWlLk6GJQsqaUBKTNV-1" source="G33JyOcpM93UeFImrhVr-8" target="G33JyOcpM93UeFImrhVr-11" edge="1">
          <mxGeometry relative="1" as="geometry">
            <mxPoint x="670" y="813" as="targetPoint" />
          </mxGeometry>
        </mxCell>
        <mxCell id="G33JyOcpM93UeFImrhVr-8" value="TimeValueDataParse" style="swimlane;fontStyle=1;align=center;verticalAlign=top;childLayout=stackLayout;horizontal=1;startSize=26;horizontalStack=0;resizeParent=1;resizeParentMax=0;resizeLast=0;collapsible=1;marginBottom=0;whiteSpace=wrap;html=1;" parent="WIyWlLk6GJQsqaUBKTNV-1" vertex="1">
          <mxGeometry x="570" y="673" width="330" height="78" as="geometry" />
        </mxCell>
        <mxCell id="TfS-SFnpE8Rlo6a1KrcC-32" value="+ parseJson(doc: QJsonDocument): ChartData" style="text;strokeColor=none;fillColor=none;align=left;verticalAlign=top;spacingLeft=4;spacingRight=4;overflow=hidden;rotatable=0;points=[[0,0.5],[1,0.5]];portConstraint=eastwest;whiteSpace=wrap;html=1;" vertex="1" parent="G33JyOcpM93UeFImrhVr-8">
          <mxGeometry y="26" width="330" height="26" as="geometry" />
        </mxCell>
        <mxCell id="TfS-SFnpE8Rlo6a1KrcC-33" value="+ parseSql(query: QSqlQuery): ChartData" style="text;strokeColor=none;fillColor=none;align=left;verticalAlign=top;spacingLeft=4;spacingRight=4;overflow=hidden;rotatable=0;points=[[0,0.5],[1,0.5]];portConstraint=eastwest;whiteSpace=wrap;html=1;" vertex="1" parent="G33JyOcpM93UeFImrhVr-8">
          <mxGeometry y="52" width="330" height="26" as="geometry" />
        </mxCell>
        <mxCell id="G33JyOcpM93UeFImrhVr-11" value="" style="shape=waypoint;sketch=0;fillStyle=solid;size=6;pointerEvents=1;points=[];fillColor=none;resizable=0;rotatable=0;perimeter=centerPerimeter;snapToPoint=1;" parent="WIyWlLk6GJQsqaUBKTNV-1" vertex="1">
          <mxGeometry x="725" y="802" width="20" height="20" as="geometry" />
        </mxCell>
        <mxCell id="G33JyOcpM93UeFImrhVr-14" style="edgeStyle=orthogonalEdgeStyle;rounded=0;orthogonalLoop=1;jettySize=auto;html=1;exitX=0.5;exitY=0.333;exitDx=0;exitDy=0;exitPerimeter=0;endArrow=block;endFill=0;dashed=1;" parent="WIyWlLk6GJQsqaUBKTNV-1" source="G33JyOcpM93UeFImrhVr-11" target="G33JyOcpM93UeFImrhVr-2" edge="1">
          <mxGeometry relative="1" as="geometry" />
        </mxCell>
        <mxCell id="TfS-SFnpE8Rlo6a1KrcC-0" value="&lt;i&gt;ChartData&lt;/i&gt;" style="swimlane;fontStyle=1;align=center;verticalAlign=top;childLayout=stackLayout;horizontal=1;startSize=26;horizontalStack=0;resizeParent=1;resizeParentMax=0;resizeLast=0;collapsible=1;marginBottom=0;whiteSpace=wrap;html=1;" vertex="1" parent="WIyWlLk6GJQsqaUBKTNV-1">
          <mxGeometry x="537.5" y="30" width="160" height="78" as="geometry" />
        </mxCell>
        <mxCell id="6bnI2fmXSYO4kuQ0v8uX-40" value="+ xLabel: QString" style="text;strokeColor=none;fillColor=none;align=left;verticalAlign=top;spacingLeft=4;spacingRight=4;overflow=hidden;rotatable=0;points=[[0,0.5],[1,0.5]];portConstraint=eastwest;whiteSpace=wrap;html=1;" vertex="1" parent="TfS-SFnpE8Rlo6a1KrcC-0">
          <mxGeometry y="26" width="160" height="26" as="geometry" />
        </mxCell>
        <mxCell id="6bnI2fmXSYO4kuQ0v8uX-41" value="+ yLabel: QString" style="text;strokeColor=none;fillColor=none;align=left;verticalAlign=top;spacingLeft=4;spacingRight=4;overflow=hidden;rotatable=0;points=[[0,0.5],[1,0.5]];portConstraint=eastwest;whiteSpace=wrap;html=1;" vertex="1" parent="TfS-SFnpE8Rlo6a1KrcC-0">
          <mxGeometry y="52" width="160" height="26" as="geometry" />
        </mxCell>
        <mxCell id="TfS-SFnpE8Rlo6a1KrcC-4" value="TimeValuesData" style="swimlane;fontStyle=1;align=center;verticalAlign=top;childLayout=stackLayout;horizontal=1;startSize=26;horizontalStack=0;resizeParent=1;resizeParentMax=0;resizeLast=0;collapsible=1;marginBottom=0;whiteSpace=wrap;html=1;" vertex="1" parent="WIyWlLk6GJQsqaUBKTNV-1">
          <mxGeometry x="310" y="190" width="250" height="52" as="geometry" />
        </mxCell>
        <mxCell id="TfS-SFnpE8Rlo6a1KrcC-5" value="+ data: QList&amp;lt;QPair&amp;lt;QDateTime, qreal&amp;gt;&amp;gt;" style="text;strokeColor=none;fillColor=none;align=left;verticalAlign=top;spacingLeft=4;spacingRight=4;overflow=hidden;rotatable=0;points=[[0,0.5],[1,0.5]];portConstraint=eastwest;whiteSpace=wrap;html=1;" vertex="1" parent="TfS-SFnpE8Rlo6a1KrcC-4">
          <mxGeometry y="26" width="250" height="26" as="geometry" />
        </mxCell>
        <mxCell id="TfS-SFnpE8Rlo6a1KrcC-9" style="edgeStyle=elbowEdgeStyle;rounded=0;orthogonalLoop=1;jettySize=auto;html=1;entryX=0.316;entryY=0.66;entryDx=0;entryDy=0;entryPerimeter=0;fontSize=12;startSize=8;endSize=8;exitX=0.5;exitY=0;exitDx=0;exitDy=0;elbow=vertical;endArrow=none;startFill=0;" edge="1" parent="WIyWlLk6GJQsqaUBKTNV-1" source="TfS-SFnpE8Rlo6a1KrcC-4" target="TfS-SFnpE8Rlo6a1KrcC-8">
          <mxGeometry relative="1" as="geometry">
            <Array as="points">
              <mxPoint x="537.5" y="160" />
            </Array>
          </mxGeometry>
        </mxCell>
        <mxCell id="TfS-SFnpE8Rlo6a1KrcC-10" style="edgeStyle=elbowEdgeStyle;rounded=0;orthogonalLoop=1;jettySize=auto;html=1;fontSize=12;startSize=8;endSize=8;elbow=vertical;endArrow=block;startFill=0;endFill=0;" edge="1" parent="WIyWlLk6GJQsqaUBKTNV-1" source="TfS-SFnpE8Rlo6a1KrcC-8" target="6bnI2fmXSYO4kuQ0v8uX-41">
          <mxGeometry relative="1" as="geometry">
            <mxPoint x="607.5800000000002" y="102.22400000000005" as="targetPoint" />
          </mxGeometry>
        </mxCell>
        <mxCell id="TfS-SFnpE8Rlo6a1KrcC-11" value="XYData" style="swimlane;fontStyle=1;align=center;verticalAlign=top;childLayout=stackLayout;horizontal=1;startSize=26;horizontalStack=0;resizeParent=1;resizeParentMax=0;resizeLast=0;collapsible=1;marginBottom=0;whiteSpace=wrap;html=1;" vertex="1" parent="WIyWlLk6GJQsqaUBKTNV-1">
          <mxGeometry x="637.5" y="190" width="230" height="52" as="geometry" />
        </mxCell>
        <mxCell id="TfS-SFnpE8Rlo6a1KrcC-12" value="+ data: QList&amp;lt;QPointF&amp;gt;" style="text;strokeColor=none;fillColor=none;align=left;verticalAlign=top;spacingLeft=4;spacingRight=4;overflow=hidden;rotatable=0;points=[[0,0.5],[1,0.5]];portConstraint=eastwest;whiteSpace=wrap;html=1;" vertex="1" parent="TfS-SFnpE8Rlo6a1KrcC-11">
          <mxGeometry y="26" width="230" height="26" as="geometry" />
        </mxCell>
        <mxCell id="TfS-SFnpE8Rlo6a1KrcC-17" value="&lt;div&gt;&lt;i&gt;&amp;lt;&amp;lt;abstract&amp;gt;&amp;gt;&lt;/i&gt;&lt;/div&gt;&lt;i&gt;ExtractData&lt;/i&gt;" style="swimlane;fontStyle=0;childLayout=stackLayout;horizontal=1;startSize=40;fillColor=none;horizontalStack=0;resizeParent=1;resizeParentMax=0;resizeLast=0;collapsible=1;marginBottom=0;whiteSpace=wrap;html=1;" vertex="1" parent="WIyWlLk6GJQsqaUBKTNV-1">
          <mxGeometry x="220" y="418" width="330" height="152" as="geometry" />
        </mxCell>
        <mxCell id="6bnI2fmXSYO4kuQ0v8uX-35" value="+ _st: Parse" style="text;strokeColor=none;fillColor=none;align=left;verticalAlign=top;spacingLeft=4;spacingRight=4;overflow=hidden;rotatable=0;points=[[0,0.5],[1,0.5]];portConstraint=eastwest;whiteSpace=wrap;html=1;" vertex="1" parent="TfS-SFnpE8Rlo6a1KrcC-17">
          <mxGeometry y="40" width="330" height="26" as="geometry" />
        </mxCell>
        <mxCell id="6bnI2fmXSYO4kuQ0v8uX-34" value="" style="line;strokeWidth=1;fillColor=none;align=left;verticalAlign=middle;spacingTop=-1;spacingLeft=3;spacingRight=3;rotatable=0;labelPosition=right;points=[];portConstraint=eastwest;strokeColor=inherit;" vertex="1" parent="TfS-SFnpE8Rlo6a1KrcC-17">
          <mxGeometry y="66" width="330" height="8" as="geometry" />
        </mxCell>
        <mxCell id="6bnI2fmXSYO4kuQ0v8uX-32" value="+ ExtractData(st: Parse)" style="text;strokeColor=none;fillColor=none;align=left;verticalAlign=top;spacingLeft=4;spacingRight=4;overflow=hidden;rotatable=0;points=[[0,0.5],[1,0.5]];portConstraint=eastwest;whiteSpace=wrap;html=1;" vertex="1" parent="TfS-SFnpE8Rlo6a1KrcC-17">
          <mxGeometry y="74" width="330" height="26" as="geometry" />
        </mxCell>
        <mxCell id="TfS-SFnpE8Rlo6a1KrcC-18" value="+ extract(path: QString): ChartData" style="text;strokeColor=none;fillColor=none;align=left;verticalAlign=top;spacingLeft=4;spacingRight=4;overflow=hidden;rotatable=0;points=[[0,0.5],[1,0.5]];portConstraint=eastwest;whiteSpace=wrap;html=1;fontStyle=2" vertex="1" parent="TfS-SFnpE8Rlo6a1KrcC-17">
          <mxGeometry y="100" width="330" height="26" as="geometry" />
        </mxCell>
        <mxCell id="6bnI2fmXSYO4kuQ0v8uX-42" value="+ setStrategy(st: Parse)" style="text;strokeColor=none;fillColor=none;align=left;verticalAlign=top;spacingLeft=4;spacingRight=4;overflow=hidden;rotatable=0;points=[[0,0.5],[1,0.5]];portConstraint=eastwest;whiteSpace=wrap;html=1;" vertex="1" parent="TfS-SFnpE8Rlo6a1KrcC-17">
          <mxGeometry y="126" width="330" height="26" as="geometry" />
        </mxCell>
        <mxCell id="TfS-SFnpE8Rlo6a1KrcC-19" style="edgeStyle=elbowEdgeStyle;rounded=0;orthogonalLoop=1;jettySize=auto;html=1;exitX=0.5;exitY=0;exitDx=0;exitDy=0;elbow=vertical;endArrow=none;startFill=0;dashed=1;" edge="1" parent="WIyWlLk6GJQsqaUBKTNV-1" source="TfS-SFnpE8Rlo6a1KrcC-20" target="TfS-SFnpE8Rlo6a1KrcC-25">
          <mxGeometry relative="1" as="geometry">
            <mxPoint x="620" y="479" as="targetPoint" />
          </mxGeometry>
        </mxCell>
        <mxCell id="TfS-SFnpE8Rlo6a1KrcC-20" value="SqlExtract" style="swimlane;fontStyle=1;align=center;verticalAlign=top;childLayout=stackLayout;horizontal=1;startSize=26;horizontalStack=0;resizeParent=1;resizeParentMax=0;resizeLast=0;collapsible=1;marginBottom=0;whiteSpace=wrap;html=1;" vertex="1" parent="WIyWlLk6GJQsqaUBKTNV-1">
          <mxGeometry x="575" y="559" width="320" height="78" as="geometry" />
        </mxCell>
        <mxCell id="6bnI2fmXSYO4kuQ0v8uX-39" value="+ SqlExtract(st: Parse)" style="text;strokeColor=none;fillColor=none;align=left;verticalAlign=top;spacingLeft=4;spacingRight=4;overflow=hidden;rotatable=0;points=[[0,0.5],[1,0.5]];portConstraint=eastwest;whiteSpace=wrap;html=1;" vertex="1" parent="TfS-SFnpE8Rlo6a1KrcC-20">
          <mxGeometry y="26" width="320" height="26" as="geometry" />
        </mxCell>
        <mxCell id="6bnI2fmXSYO4kuQ0v8uX-10" value="+ extract(path: QString): ChartData" style="text;strokeColor=none;fillColor=none;align=left;verticalAlign=top;spacingLeft=4;spacingRight=4;overflow=hidden;rotatable=0;points=[[0,0.5],[1,0.5]];portConstraint=eastwest;whiteSpace=wrap;html=1;" vertex="1" parent="TfS-SFnpE8Rlo6a1KrcC-20">
          <mxGeometry y="52" width="320" height="26" as="geometry" />
        </mxCell>
        <mxCell id="TfS-SFnpE8Rlo6a1KrcC-22" style="edgeStyle=elbowEdgeStyle;rounded=0;orthogonalLoop=1;jettySize=auto;html=1;exitX=0.5;exitY=1;exitDx=0;exitDy=0;elbow=vertical;endArrow=none;startFill=0;dashed=1;" edge="1" parent="WIyWlLk6GJQsqaUBKTNV-1" source="TfS-SFnpE8Rlo6a1KrcC-23" target="TfS-SFnpE8Rlo6a1KrcC-25">
          <mxGeometry relative="1" as="geometry">
            <mxPoint x="670" y="479" as="targetPoint" />
          </mxGeometry>
        </mxCell>
        <mxCell id="TfS-SFnpE8Rlo6a1KrcC-23" value="JsonExtract" style="swimlane;fontStyle=1;align=center;verticalAlign=top;childLayout=stackLayout;horizontal=1;startSize=26;horizontalStack=0;resizeParent=1;resizeParentMax=0;resizeLast=0;collapsible=1;marginBottom=0;whiteSpace=wrap;html=1;" vertex="1" parent="WIyWlLk6GJQsqaUBKTNV-1">
          <mxGeometry x="570" y="330" width="330" height="78" as="geometry" />
        </mxCell>
        <mxCell id="6bnI2fmXSYO4kuQ0v8uX-37" value="+ JsonExtract(st: Parse)" style="text;strokeColor=none;fillColor=none;align=left;verticalAlign=top;spacingLeft=4;spacingRight=4;overflow=hidden;rotatable=0;points=[[0,0.5],[1,0.5]];portConstraint=eastwest;whiteSpace=wrap;html=1;" vertex="1" parent="TfS-SFnpE8Rlo6a1KrcC-23">
          <mxGeometry y="26" width="330" height="26" as="geometry" />
        </mxCell>
        <mxCell id="6bnI2fmXSYO4kuQ0v8uX-11" value="+ extract(path: QString, st: Parse): ChartData" style="text;strokeColor=none;fillColor=none;align=left;verticalAlign=top;spacingLeft=4;spacingRight=4;overflow=hidden;rotatable=0;points=[[0,0.5],[1,0.5]];portConstraint=eastwest;whiteSpace=wrap;html=1;" vertex="1" parent="TfS-SFnpE8Rlo6a1KrcC-23">
          <mxGeometry y="52" width="330" height="26" as="geometry" />
        </mxCell>
        <mxCell id="TfS-SFnpE8Rlo6a1KrcC-25" value="" style="shape=waypoint;sketch=0;fillStyle=solid;size=6;pointerEvents=1;points=[];fillColor=none;resizable=0;rotatable=0;perimeter=centerPerimeter;snapToPoint=1;" vertex="1" parent="WIyWlLk6GJQsqaUBKTNV-1">
          <mxGeometry x="725" y="461" width="20" height="20" as="geometry" />
        </mxCell>
        <mxCell id="TfS-SFnpE8Rlo6a1KrcC-26" style="edgeStyle=orthogonalEdgeStyle;rounded=0;orthogonalLoop=1;jettySize=auto;html=1;exitX=0.5;exitY=0.333;exitDx=0;exitDy=0;exitPerimeter=0;dashed=1;endArrow=block;endFill=0;" edge="1" parent="WIyWlLk6GJQsqaUBKTNV-1" source="TfS-SFnpE8Rlo6a1KrcC-25" target="6bnI2fmXSYO4kuQ0v8uX-35">
          <mxGeometry relative="1" as="geometry">
            <mxPoint x="579.3399999999997" y="465.6560000000002" as="targetPoint" />
          </mxGeometry>
        </mxCell>
        <mxCell id="HbhNmz4VTFTAli2nQvAM-0" value="" style="rounded=0;whiteSpace=wrap;html=1;" vertex="1" parent="WIyWlLk6GJQsqaUBKTNV-1">
          <mxGeometry x="2170" y="1086" width="614" height="60" as="geometry" />
        </mxCell>
        <mxCell id="HbhNmz4VTFTAli2nQvAM-1" style="edgeStyle=none;curved=1;rounded=0;orthogonalLoop=1;jettySize=auto;html=1;entryX=0;entryY=0.5;entryDx=0;entryDy=0;fontSize=12;startSize=8;endSize=8;" edge="1" parent="WIyWlLk6GJQsqaUBKTNV-1" source="HbhNmz4VTFTAli2nQvAM-2" target="HbhNmz4VTFTAli2nQvAM-5">
          <mxGeometry relative="1" as="geometry" />
        </mxCell>
        <mxCell id="HbhNmz4VTFTAli2nQvAM-2" value="ReadData" style="text;html=1;align=center;verticalAlign=middle;whiteSpace=wrap;rounded=0;" vertex="1" parent="WIyWlLk6GJQsqaUBKTNV-1">
          <mxGeometry x="2220" y="1103" width="60" height="30" as="geometry" />
        </mxCell>
        <mxCell id="HbhNmz4VTFTAli2nQvAM-3" style="edgeStyle=none;curved=1;rounded=0;orthogonalLoop=1;jettySize=auto;html=1;fontSize=12;startSize=8;endSize=8;" edge="1" parent="WIyWlLk6GJQsqaUBKTNV-1" source="HbhNmz4VTFTAli2nQvAM-5" target="HbhNmz4VTFTAli2nQvAM-6">
          <mxGeometry relative="1" as="geometry" />
        </mxCell>
        <mxCell id="HbhNmz4VTFTAli2nQvAM-4" value="&lt;font style=&quot;font-size: 6px;&quot;&gt;QChart&lt;/font&gt;" style="edgeLabel;html=1;align=center;verticalAlign=middle;resizable=0;points=[];fontSize=12;labelBackgroundColor=none;" vertex="1" connectable="0" parent="HbhNmz4VTFTAli2nQvAM-3">
          <mxGeometry x="-0.1729" y="2" relative="1" as="geometry">
            <mxPoint x="11" y="-3" as="offset" />
          </mxGeometry>
        </mxCell>
        <mxCell id="HbhNmz4VTFTAli2nQvAM-5" value="GetQChart" style="text;html=1;align=center;verticalAlign=middle;whiteSpace=wrap;rounded=0;" vertex="1" parent="WIyWlLk6GJQsqaUBKTNV-1">
          <mxGeometry x="2444.5" y="1103" width="93" height="30" as="geometry" />
        </mxCell>
        <mxCell id="HbhNmz4VTFTAli2nQvAM-6" value="DrawChart" style="text;html=1;align=center;verticalAlign=middle;whiteSpace=wrap;rounded=0;" vertex="1" parent="WIyWlLk6GJQsqaUBKTNV-1">
          <mxGeometry x="2674" y="1103" width="60" height="30" as="geometry" />
        </mxCell>
        <mxCell id="HbhNmz4VTFTAli2nQvAM-7" value="" style="shape=offPageConnector;whiteSpace=wrap;html=1;" vertex="1" parent="WIyWlLk6GJQsqaUBKTNV-1">
          <mxGeometry x="2170" y="1055" width="160" height="40" as="geometry" />
        </mxCell>
        <mxCell id="HbhNmz4VTFTAli2nQvAM-8" value="Json" style="rounded=0;whiteSpace=wrap;html=1;" vertex="1" parent="WIyWlLk6GJQsqaUBKTNV-1">
          <mxGeometry x="2250" y="983" width="80" height="37" as="geometry" />
        </mxCell>
        <mxCell id="HbhNmz4VTFTAli2nQvAM-9" value="Sql" style="rounded=0;whiteSpace=wrap;html=1;" vertex="1" parent="WIyWlLk6GJQsqaUBKTNV-1">
          <mxGeometry x="2170" y="983" width="80" height="37" as="geometry" />
        </mxCell>
        <mxCell id="HbhNmz4VTFTAli2nQvAM-10" value="" style="shape=offPageConnector;whiteSpace=wrap;html=1;" vertex="1" parent="WIyWlLk6GJQsqaUBKTNV-1">
          <mxGeometry x="2170" y="941" width="160" height="33" as="geometry" />
        </mxCell>
        <mxCell id="HbhNmz4VTFTAli2nQvAM-11" value="TimeSeriesP" style="rounded=0;whiteSpace=wrap;html=1;" vertex="1" parent="WIyWlLk6GJQsqaUBKTNV-1">
          <mxGeometry x="2170" y="880" width="80" height="36" as="geometry" />
        </mxCell>
        <mxCell id="HbhNmz4VTFTAli2nQvAM-12" value="CoordSeriesP" style="rounded=0;whiteSpace=wrap;html=1;" vertex="1" parent="WIyWlLk6GJQsqaUBKTNV-1">
          <mxGeometry x="2250" y="880" width="80" height="36" as="geometry" />
        </mxCell>
        <mxCell id="HbhNmz4VTFTAli2nQvAM-13" value="&lt;font style=&quot;font-size: 6px;&quot;&gt;ChartData&lt;/font&gt;" style="text;html=1;align=center;verticalAlign=middle;resizable=0;points=[];autosize=1;strokeColor=none;fillColor=none;fontSize=16;" vertex="1" parent="WIyWlLk6GJQsqaUBKTNV-1">
          <mxGeometry x="2307" y="1096" width="50" height="30" as="geometry" />
        </mxCell>
        <mxCell id="HbhNmz4VTFTAli2nQvAM-14" value="" style="shape=offPageConnector;whiteSpace=wrap;html=1;" vertex="1" parent="WIyWlLk6GJQsqaUBKTNV-1">
          <mxGeometry x="2354" y="1055" width="274" height="40" as="geometry" />
        </mxCell>
        <mxCell id="HbhNmz4VTFTAli2nQvAM-15" value="CoordSeriesChart" style="rounded=0;whiteSpace=wrap;html=1;" vertex="1" parent="WIyWlLk6GJQsqaUBKTNV-1">
          <mxGeometry x="2490" y="988.25" width="138" height="37" as="geometry" />
        </mxCell>
        <mxCell id="HbhNmz4VTFTAli2nQvAM-16" value="TimeSeriesChart" style="rounded=0;whiteSpace=wrap;html=1;" vertex="1" parent="WIyWlLk6GJQsqaUBKTNV-1">
          <mxGeometry x="2354" y="988.25" width="136" height="37" as="geometry" />
        </mxCell>
        <mxCell id="HbhNmz4VTFTAli2nQvAM-17" value="Line" style="rounded=0;whiteSpace=wrap;html=1;" vertex="1" parent="WIyWlLk6GJQsqaUBKTNV-1">
          <mxGeometry x="2354" y="952.25" width="68" height="36" as="geometry" />
        </mxCell>
        <mxCell id="HbhNmz4VTFTAli2nQvAM-18" value="Histogram" style="rounded=0;whiteSpace=wrap;html=1;" vertex="1" parent="WIyWlLk6GJQsqaUBKTNV-1">
          <mxGeometry x="2422" y="952.25" width="68" height="36" as="geometry" />
        </mxCell>
        <mxCell id="HbhNmz4VTFTAli2nQvAM-19" value="Area" style="rounded=0;whiteSpace=wrap;html=1;" vertex="1" parent="WIyWlLk6GJQsqaUBKTNV-1">
          <mxGeometry x="2490" y="952.25" width="138" height="36" as="geometry" />
        </mxCell>
        <mxCell id="HbhNmz4VTFTAli2nQvAM-20" value="MyChart" style="rounded=0;whiteSpace=wrap;html=1;" vertex="1" parent="WIyWlLk6GJQsqaUBKTNV-1">
          <mxGeometry x="2354" y="1023.5" width="274" height="31.5" as="geometry" />
        </mxCell>
        <mxCell id="HbhNmz4VTFTAli2nQvAM-21" value="ExtractData" style="rounded=0;whiteSpace=wrap;html=1;" vertex="1" parent="WIyWlLk6GJQsqaUBKTNV-1">
          <mxGeometry x="2170" y="1020" width="160" height="35" as="geometry" />
        </mxCell>
        <mxCell id="HbhNmz4VTFTAli2nQvAM-22" value="Parseegy" style="rounded=0;whiteSpace=wrap;html=1;" vertex="1" parent="WIyWlLk6GJQsqaUBKTNV-1">
          <mxGeometry x="2170" y="916" width="160" height="29" as="geometry" />
        </mxCell>
        <mxCell id="6bnI2fmXSYO4kuQ0v8uX-0" value="&amp;lt;&amp;lt;interface&amp;gt;&amp;gt;&lt;div&gt;TimeSeriesCharts&lt;/div&gt;" style="swimlane;fontStyle=2;childLayout=stackLayout;horizontal=1;startSize=40;fillColor=none;horizontalStack=0;resizeParent=1;resizeParentMax=0;resizeLast=0;collapsible=1;marginBottom=0;whiteSpace=wrap;html=1;" vertex="1" parent="WIyWlLk6GJQsqaUBKTNV-1">
          <mxGeometry x="1250" y="150" width="250" height="66" as="geometry" />
        </mxCell>
        <mxCell id="6bnI2fmXSYO4kuQ0v8uX-1" value="+ create(data: TimeSeries): QAbstractSeries" style="text;strokeColor=none;fillColor=none;align=left;verticalAlign=top;spacingLeft=4;spacingRight=4;overflow=hidden;rotatable=0;points=[[0,0.5],[1,0.5]];portConstraint=eastwest;whiteSpace=wrap;html=1;fontStyle=2" vertex="1" parent="6bnI2fmXSYO4kuQ0v8uX-0">
          <mxGeometry y="40" width="250" height="26" as="geometry" />
        </mxCell>
        <mxCell id="6bnI2fmXSYO4kuQ0v8uX-2" style="edgeStyle=orthogonalEdgeStyle;rounded=0;orthogonalLoop=1;jettySize=auto;html=1;exitX=0.5;exitY=0;exitDx=0;exitDy=0;endArrow=none;startFill=0;dashed=1;" edge="1" parent="WIyWlLk6GJQsqaUBKTNV-1" source="6bnI2fmXSYO4kuQ0v8uX-3" target="6bnI2fmXSYO4kuQ0v8uX-8">
          <mxGeometry relative="1" as="geometry">
            <Array as="points">
              <mxPoint x="1220" y="250" />
            </Array>
          </mxGeometry>
        </mxCell>
        <mxCell id="6bnI2fmXSYO4kuQ0v8uX-3" value="TimeSeriesLine" style="swimlane;fontStyle=1;align=center;verticalAlign=top;childLayout=stackLayout;horizontal=1;startSize=26;horizontalStack=0;resizeParent=1;resizeParentMax=0;resizeLast=0;collapsible=1;marginBottom=0;whiteSpace=wrap;html=1;" vertex="1" parent="WIyWlLk6GJQsqaUBKTNV-1">
          <mxGeometry x="1110" y="270" width="250" height="52" as="geometry" />
        </mxCell>
        <mxCell id="6bnI2fmXSYO4kuQ0v8uX-4" value="+ create(data: TimeSeries): QAbstractSeries" style="text;strokeColor=none;fillColor=none;align=left;verticalAlign=top;spacingLeft=4;spacingRight=4;overflow=hidden;rotatable=0;points=[[0,0.5],[1,0.5]];portConstraint=eastwest;whiteSpace=wrap;html=1;" vertex="1" parent="6bnI2fmXSYO4kuQ0v8uX-3">
          <mxGeometry y="26" width="250" height="26" as="geometry" />
        </mxCell>
        <mxCell id="6bnI2fmXSYO4kuQ0v8uX-5" style="edgeStyle=orthogonalEdgeStyle;rounded=0;orthogonalLoop=1;jettySize=auto;html=1;exitX=0.5;exitY=0;exitDx=0;exitDy=0;endArrow=none;startFill=0;dashed=1;" edge="1" parent="WIyWlLk6GJQsqaUBKTNV-1" source="6bnI2fmXSYO4kuQ0v8uX-6" target="6bnI2fmXSYO4kuQ0v8uX-8">
          <mxGeometry relative="1" as="geometry">
            <Array as="points">
              <mxPoint x="1510" y="250" />
            </Array>
          </mxGeometry>
        </mxCell>
        <mxCell id="6bnI2fmXSYO4kuQ0v8uX-6" value="TimeSeriesHistogram" style="swimlane;fontStyle=1;align=center;verticalAlign=top;childLayout=stackLayout;horizontal=1;startSize=26;horizontalStack=0;resizeParent=1;resizeParentMax=0;resizeLast=0;collapsible=1;marginBottom=0;whiteSpace=wrap;html=1;" vertex="1" parent="WIyWlLk6GJQsqaUBKTNV-1">
          <mxGeometry x="1400" y="270" width="250" height="52" as="geometry" />
        </mxCell>
        <mxCell id="6bnI2fmXSYO4kuQ0v8uX-7" value="+ create(data: TimeSeries): QAbstractSeries" style="text;strokeColor=none;fillColor=none;align=left;verticalAlign=top;spacingLeft=4;spacingRight=4;overflow=hidden;rotatable=0;points=[[0,0.5],[1,0.5]];portConstraint=eastwest;whiteSpace=wrap;html=1;" vertex="1" parent="6bnI2fmXSYO4kuQ0v8uX-6">
          <mxGeometry y="26" width="250" height="26" as="geometry" />
        </mxCell>
        <mxCell id="6bnI2fmXSYO4kuQ0v8uX-8" value="" style="shape=waypoint;sketch=0;fillStyle=solid;size=6;pointerEvents=1;points=[];fillColor=none;resizable=0;rotatable=0;perimeter=centerPerimeter;snapToPoint=1;" vertex="1" parent="WIyWlLk6GJQsqaUBKTNV-1">
          <mxGeometry x="1360" y="240" width="20" height="20" as="geometry" />
        </mxCell>
        <mxCell id="6bnI2fmXSYO4kuQ0v8uX-9" style="edgeStyle=orthogonalEdgeStyle;rounded=0;orthogonalLoop=1;jettySize=auto;html=1;entryX=0.481;entryY=0.98;entryDx=0;entryDy=0;entryPerimeter=0;endArrow=block;endFill=0;dashed=1;" edge="1" parent="WIyWlLk6GJQsqaUBKTNV-1" source="6bnI2fmXSYO4kuQ0v8uX-8" target="6bnI2fmXSYO4kuQ0v8uX-1">
          <mxGeometry relative="1" as="geometry" />
        </mxCell>
        <mxCell id="6bnI2fmXSYO4kuQ0v8uX-12" style="edgeStyle=none;curved=1;rounded=0;orthogonalLoop=1;jettySize=auto;html=1;entryX=0.602;entryY=-0.002;entryDx=0;entryDy=0;entryPerimeter=0;fontSize=12;startSize=8;endSize=8;endArrow=open;endFill=0;startArrow=diamondThin;startFill=0;" edge="1" parent="WIyWlLk6GJQsqaUBKTNV-1" source="TfS-SFnpE8Rlo6a1KrcC-17" target="G33JyOcpM93UeFImrhVr-0">
          <mxGeometry relative="1" as="geometry" />
        </mxCell>
        <mxCell id="6bnI2fmXSYO4kuQ0v8uX-13" value="&amp;lt;&amp;lt;interface&amp;gt;&amp;gt;&lt;div&gt;XYCharts&lt;/div&gt;" style="swimlane;fontStyle=2;childLayout=stackLayout;horizontal=1;startSize=40;fillColor=none;horizontalStack=0;resizeParent=1;resizeParentMax=0;resizeLast=0;collapsible=1;marginBottom=0;whiteSpace=wrap;html=1;" vertex="1" parent="WIyWlLk6GJQsqaUBKTNV-1">
          <mxGeometry x="1740" y="146" width="280" height="66" as="geometry" />
        </mxCell>
        <mxCell id="6bnI2fmXSYO4kuQ0v8uX-14" value="+ create(data: CoordSeries): QAbstractSeries" style="text;strokeColor=none;fillColor=none;align=left;verticalAlign=top;spacingLeft=4;spacingRight=4;overflow=hidden;rotatable=0;points=[[0,0.5],[1,0.5]];portConstraint=eastwest;whiteSpace=wrap;html=1;fontStyle=2" vertex="1" parent="6bnI2fmXSYO4kuQ0v8uX-13">
          <mxGeometry y="40" width="280" height="26" as="geometry" />
        </mxCell>
        <mxCell id="6bnI2fmXSYO4kuQ0v8uX-16" value="XYSeriesLine" style="swimlane;fontStyle=1;align=center;verticalAlign=top;childLayout=stackLayout;horizontal=1;startSize=26;horizontalStack=0;resizeParent=1;resizeParentMax=0;resizeLast=0;collapsible=1;marginBottom=0;whiteSpace=wrap;html=1;" vertex="1" parent="WIyWlLk6GJQsqaUBKTNV-1">
          <mxGeometry x="1750" y="271" width="250" height="52" as="geometry" />
        </mxCell>
        <mxCell id="6bnI2fmXSYO4kuQ0v8uX-17" value="+ create(data: XYSeries): QAbstractSeries" style="text;strokeColor=none;fillColor=none;align=left;verticalAlign=top;spacingLeft=4;spacingRight=4;overflow=hidden;rotatable=0;points=[[0,0.5],[1,0.5]];portConstraint=eastwest;whiteSpace=wrap;html=1;" vertex="1" parent="6bnI2fmXSYO4kuQ0v8uX-16">
          <mxGeometry y="26" width="250" height="26" as="geometry" />
        </mxCell>
        <mxCell id="6bnI2fmXSYO4kuQ0v8uX-23" style="edgeStyle=none;curved=1;rounded=0;orthogonalLoop=1;jettySize=auto;html=1;entryX=0.482;entryY=0.996;entryDx=0;entryDy=0;entryPerimeter=0;fontSize=12;startSize=8;endSize=8;endArrow=block;startFill=0;endFill=0;dashed=1;" edge="1" parent="WIyWlLk6GJQsqaUBKTNV-1" source="6bnI2fmXSYO4kuQ0v8uX-16" target="6bnI2fmXSYO4kuQ0v8uX-14">
          <mxGeometry relative="1" as="geometry" />
        </mxCell>
        <mxCell id="6bnI2fmXSYO4kuQ0v8uX-24" value="&amp;lt;&amp;lt;interface&amp;gt;&amp;gt;&lt;div&gt;MyCharts&lt;/div&gt;" style="swimlane;fontStyle=2;childLayout=stackLayout;horizontal=1;startSize=40;fillColor=none;horizontalStack=0;resizeParent=1;resizeParentMax=0;resizeLast=0;collapsible=1;marginBottom=0;whiteSpace=wrap;html=1;" vertex="1" parent="WIyWlLk6GJQsqaUBKTNV-1">
          <mxGeometry x="1540" y="20" width="250" height="66" as="geometry" />
        </mxCell>
        <mxCell id="6bnI2fmXSYO4kuQ0v8uX-25" value="+ create(data: ChartData): QAbstractSeries" style="text;strokeColor=none;fillColor=none;align=left;verticalAlign=top;spacingLeft=4;spacingRight=4;overflow=hidden;rotatable=0;points=[[0,0.5],[1,0.5]];portConstraint=eastwest;whiteSpace=wrap;html=1;fontStyle=2" vertex="1" parent="6bnI2fmXSYO4kuQ0v8uX-24">
          <mxGeometry y="40" width="250" height="26" as="geometry" />
        </mxCell>
        <mxCell id="6bnI2fmXSYO4kuQ0v8uX-27" style="edgeStyle=elbowEdgeStyle;rounded=0;orthogonalLoop=1;jettySize=auto;html=1;fontSize=12;startSize=8;endSize=8;exitX=0.5;exitY=0;exitDx=0;exitDy=0;elbow=vertical;endArrow=none;startFill=0;" edge="1" parent="WIyWlLk6GJQsqaUBKTNV-1" source="6bnI2fmXSYO4kuQ0v8uX-0" target="6bnI2fmXSYO4kuQ0v8uX-26">
          <mxGeometry relative="1" as="geometry">
            <Array as="points">
              <mxPoint x="1510" y="136" />
            </Array>
          </mxGeometry>
        </mxCell>
        <mxCell id="6bnI2fmXSYO4kuQ0v8uX-28" style="edgeStyle=elbowEdgeStyle;rounded=0;orthogonalLoop=1;jettySize=auto;html=1;fontSize=12;startSize=8;endSize=8;exitX=0.5;exitY=0;exitDx=0;exitDy=0;elbow=vertical;endArrow=none;startFill=0;" edge="1" parent="WIyWlLk6GJQsqaUBKTNV-1" source="6bnI2fmXSYO4kuQ0v8uX-13" target="6bnI2fmXSYO4kuQ0v8uX-26">
          <mxGeometry relative="1" as="geometry">
            <Array as="points">
              <mxPoint x="1770" y="136" />
            </Array>
          </mxGeometry>
        </mxCell>
        <mxCell id="6bnI2fmXSYO4kuQ0v8uX-26" value="" style="shape=waypoint;sketch=0;fillStyle=solid;size=6;pointerEvents=1;points=[];fillColor=none;resizable=0;rotatable=0;perimeter=centerPerimeter;snapToPoint=1;" vertex="1" parent="WIyWlLk6GJQsqaUBKTNV-1">
          <mxGeometry x="1634" y="126" width="20" height="20" as="geometry" />
        </mxCell>
        <mxCell id="6bnI2fmXSYO4kuQ0v8uX-29" style="edgeStyle=elbowEdgeStyle;rounded=0;orthogonalLoop=1;jettySize=auto;html=1;fontSize=12;startSize=8;endSize=8;elbow=vertical;endArrow=block;startFill=0;endFill=0;entryX=0.419;entryY=1.051;entryDx=0;entryDy=0;entryPerimeter=0;" edge="1" parent="WIyWlLk6GJQsqaUBKTNV-1" source="6bnI2fmXSYO4kuQ0v8uX-26" target="6bnI2fmXSYO4kuQ0v8uX-25">
          <mxGeometry relative="1" as="geometry" />
        </mxCell>
        <mxCell id="6bnI2fmXSYO4kuQ0v8uX-30" value="&lt;b&gt;&lt;font style=&quot;font-size: 19px;&quot;&gt;Ctr+Shit+E&lt;/font&gt;&lt;/b&gt; - for select all edges" style="text;html=1;align=center;verticalAlign=middle;resizable=0;points=[];autosize=1;strokeColor=none;fillColor=none;fontSize=16;" vertex="1" parent="WIyWlLk6GJQsqaUBKTNV-1">
          <mxGeometry x="229" y="1036" width="270" height="40" as="geometry" />
        </mxCell>
        <mxCell id="6bnI2fmXSYO4kuQ0v8uX-31" value="" style="edgeStyle=elbowEdgeStyle;rounded=0;orthogonalLoop=1;jettySize=auto;html=1;fontSize=12;startSize=8;endSize=8;exitX=0.5;exitY=0;exitDx=0;exitDy=0;elbow=vertical;endArrow=none;startFill=0;" edge="1" parent="WIyWlLk6GJQsqaUBKTNV-1" source="TfS-SFnpE8Rlo6a1KrcC-11" target="TfS-SFnpE8Rlo6a1KrcC-8">
          <mxGeometry relative="1" as="geometry">
            <mxPoint x="607.5" y="160" as="targetPoint" />
            <mxPoint x="747.5" y="190" as="sourcePoint" />
            <Array as="points">
              <mxPoint x="677.5" y="160" />
            </Array>
          </mxGeometry>
        </mxCell>
        <mxCell id="TfS-SFnpE8Rlo6a1KrcC-8" value="" style="shape=waypoint;sketch=0;fillStyle=solid;size=6;pointerEvents=1;points=[];fillColor=none;resizable=0;rotatable=0;perimeter=centerPerimeter;snapToPoint=1;" vertex="1" parent="WIyWlLk6GJQsqaUBKTNV-1">
          <mxGeometry x="607.5" y="130" width="20" height="20" as="geometry" />
        </mxCell>
      </root>
    </mxGraphModel>
  </diagram>
  <diagram id="_PHkyjFOfOw57kovQjFE" name="Страница — 2">
    <mxGraphModel dx="2323" dy="491" grid="0" gridSize="10" guides="1" tooltips="1" connect="1" arrows="1" fold="1" page="0" pageScale="1" pageWidth="827" pageHeight="1169" math="0" shadow="0">
      <root>
        <mxCell id="0" />
        <mxCell id="1" parent="0" />
        <mxCell id="MuJiTdrZBSFYBWUoVsTs-14" value="TimeSeriesSql" style="swimlane;fontStyle=1;align=center;verticalAlign=top;childLayout=stackLayout;horizontal=1;startSize=26;horizontalStack=0;resizeParent=1;resizeParentMax=0;resizeLast=0;collapsible=1;marginBottom=0;whiteSpace=wrap;html=1;" vertex="1" parent="1">
          <mxGeometry x="269" y="1037" width="315" height="52" as="geometry" />
        </mxCell>
        <mxCell id="MuJiTdrZBSFYBWUoVsTs-15" value="+ parseSql(query: QSqlQuery): ChartData" style="text;strokeColor=none;fillColor=none;align=left;verticalAlign=top;spacingLeft=4;spacingRight=4;overflow=hidden;rotatable=0;points=[[0,0.5],[1,0.5]];portConstraint=eastwest;whiteSpace=wrap;html=1;" vertex="1" parent="MuJiTdrZBSFYBWUoVsTs-14">
          <mxGeometry y="26" width="315" height="26" as="geometry" />
        </mxCell>
        <mxCell id="MuJiTdrZBSFYBWUoVsTs-17" value="TimeSeriesJson" style="swimlane;fontStyle=1;align=center;verticalAlign=top;childLayout=stackLayout;horizontal=1;startSize=26;horizontalStack=0;resizeParent=1;resizeParentMax=0;resizeLast=0;collapsible=1;marginBottom=0;whiteSpace=wrap;html=1;" vertex="1" parent="1">
          <mxGeometry x="-166" y="1037" width="330" height="52" as="geometry" />
        </mxCell>
        <mxCell id="MuJiTdrZBSFYBWUoVsTs-18" value="+ parseJson(doc: QJsonDocument): ChartData" style="text;strokeColor=none;fillColor=none;align=left;verticalAlign=top;spacingLeft=4;spacingRight=4;overflow=hidden;rotatable=0;points=[[0,0.5],[1,0.5]];portConstraint=eastwest;whiteSpace=wrap;html=1;" vertex="1" parent="MuJiTdrZBSFYBWUoVsTs-17">
          <mxGeometry y="26" width="330" height="26" as="geometry" />
        </mxCell>
        <mxCell id="MuJiTdrZBSFYBWUoVsTs-20" value="CoordSeriesSql" style="swimlane;fontStyle=1;align=center;verticalAlign=top;childLayout=stackLayout;horizontal=1;startSize=26;horizontalStack=0;resizeParent=1;resizeParentMax=0;resizeLast=0;collapsible=1;marginBottom=0;whiteSpace=wrap;html=1;" vertex="1" parent="1">
          <mxGeometry x="269" y="1221" width="315" height="52" as="geometry" />
        </mxCell>
        <mxCell id="MuJiTdrZBSFYBWUoVsTs-21" value="+ parseSql(query: QSqlQuery): ChartData" style="text;strokeColor=none;fillColor=none;align=left;verticalAlign=top;spacingLeft=4;spacingRight=4;overflow=hidden;rotatable=0;points=[[0,0.5],[1,0.5]];portConstraint=eastwest;whiteSpace=wrap;html=1;" vertex="1" parent="MuJiTdrZBSFYBWUoVsTs-20">
          <mxGeometry y="26" width="315" height="26" as="geometry" />
        </mxCell>
        <mxCell id="MuJiTdrZBSFYBWUoVsTs-23" value="CoordSeriesJson" style="swimlane;fontStyle=1;align=center;verticalAlign=top;childLayout=stackLayout;horizontal=1;startSize=26;horizontalStack=0;resizeParent=1;resizeParentMax=0;resizeLast=0;collapsible=1;marginBottom=0;whiteSpace=wrap;html=1;" vertex="1" parent="1">
          <mxGeometry x="-166" y="1221" width="330" height="52" as="geometry">
            <mxRectangle x="-184" y="1198" width="127" height="26" as="alternateBounds" />
          </mxGeometry>
        </mxCell>
        <mxCell id="MuJiTdrZBSFYBWUoVsTs-24" value="+ parseJson(doc: QJsonDocument): ChartData" style="text;strokeColor=none;fillColor=none;align=left;verticalAlign=top;spacingLeft=4;spacingRight=4;overflow=hidden;rotatable=0;points=[[0,0.5],[1,0.5]];portConstraint=eastwest;whiteSpace=wrap;html=1;" vertex="1" parent="MuJiTdrZBSFYBWUoVsTs-23">
          <mxGeometry y="26" width="330" height="26" as="geometry" />
        </mxCell>
        <mxCell id="MuJiTdrZBSFYBWUoVsTs-26" value="JsonParse" style="swimlane;fontStyle=1;align=center;verticalAlign=top;childLayout=stackLayout;horizontal=1;startSize=26;horizontalStack=0;resizeParent=1;resizeParentMax=0;resizeLast=0;collapsible=1;marginBottom=0;whiteSpace=wrap;html=1;" vertex="1" parent="1">
          <mxGeometry x="61" y="907" width="330" height="52" as="geometry" />
        </mxCell>
        <mxCell id="MuJiTdrZBSFYBWUoVsTs-27" value="+ parseJson(doc: QJsonDocument): ChartData" style="text;strokeColor=none;fillColor=none;align=left;verticalAlign=top;spacingLeft=4;spacingRight=4;overflow=hidden;rotatable=0;points=[[0,0.5],[1,0.5]];portConstraint=eastwest;whiteSpace=wrap;html=1;" vertex="1" parent="MuJiTdrZBSFYBWUoVsTs-26">
          <mxGeometry y="26" width="330" height="26" as="geometry" />
        </mxCell>
        <mxCell id="MuJiTdrZBSFYBWUoVsTs-28" value="SqlParse" style="swimlane;fontStyle=1;align=center;verticalAlign=top;childLayout=stackLayout;horizontal=1;startSize=26;horizontalStack=0;resizeParent=1;resizeParentMax=0;resizeLast=0;collapsible=1;marginBottom=0;whiteSpace=wrap;html=1;" vertex="1" parent="1">
          <mxGeometry x="480" y="907" width="330" height="52" as="geometry" />
        </mxCell>
        <mxCell id="MuJiTdrZBSFYBWUoVsTs-30" value="+ parseSql(query: QSqlQuery): ChartData" style="text;strokeColor=none;fillColor=none;align=left;verticalAlign=top;spacingLeft=4;spacingRight=4;overflow=hidden;rotatable=0;points=[[0,0.5],[1,0.5]];portConstraint=eastwest;whiteSpace=wrap;html=1;" vertex="1" parent="MuJiTdrZBSFYBWUoVsTs-28">
          <mxGeometry y="26" width="330" height="26" as="geometry" />
        </mxCell>
        <mxCell id="MuJiTdrZBSFYBWUoVsTs-31" value="TimeSeriesFactory" style="swimlane;fontStyle=1;align=center;verticalAlign=top;childLayout=stackLayout;horizontal=1;startSize=26;horizontalStack=0;resizeParent=1;resizeParentMax=0;resizeLast=0;collapsible=1;marginBottom=0;whiteSpace=wrap;html=1;" vertex="1" parent="1">
          <mxGeometry x="-611" y="959" width="330" height="78" as="geometry" />
        </mxCell>
        <mxCell id="MuJiTdrZBSFYBWUoVsTs-32" value="+ createJson(path: QString): JsonParse" style="text;strokeColor=none;fillColor=none;align=left;verticalAlign=top;spacingLeft=4;spacingRight=4;overflow=hidden;rotatable=0;points=[[0,0.5],[1,0.5]];portConstraint=eastwest;whiteSpace=wrap;html=1;" vertex="1" parent="MuJiTdrZBSFYBWUoVsTs-31">
          <mxGeometry y="26" width="330" height="26" as="geometry" />
        </mxCell>
        <mxCell id="MuJiTdrZBSFYBWUoVsTs-33" value="+ createSql(path: QString): SqlParse" style="text;strokeColor=none;fillColor=none;align=left;verticalAlign=top;spacingLeft=4;spacingRight=4;overflow=hidden;rotatable=0;points=[[0,0.5],[1,0.5]];portConstraint=eastwest;whiteSpace=wrap;html=1;" vertex="1" parent="MuJiTdrZBSFYBWUoVsTs-31">
          <mxGeometry y="52" width="330" height="26" as="geometry" />
        </mxCell>
        <mxCell id="MuJiTdrZBSFYBWUoVsTs-34" value="CoordFactory" style="swimlane;fontStyle=1;align=center;verticalAlign=top;childLayout=stackLayout;horizontal=1;startSize=26;horizontalStack=0;resizeParent=1;resizeParentMax=0;resizeLast=0;collapsible=1;marginBottom=0;whiteSpace=wrap;html=1;" vertex="1" parent="1">
          <mxGeometry x="-611" y="1143" width="330" height="78" as="geometry" />
        </mxCell>
        <mxCell id="MuJiTdrZBSFYBWUoVsTs-35" value="+ createJson(path: QString): JsonParse" style="text;strokeColor=none;fillColor=none;align=left;verticalAlign=top;spacingLeft=4;spacingRight=4;overflow=hidden;rotatable=0;points=[[0,0.5],[1,0.5]];portConstraint=eastwest;whiteSpace=wrap;html=1;" vertex="1" parent="MuJiTdrZBSFYBWUoVsTs-34">
          <mxGeometry y="26" width="330" height="26" as="geometry" />
        </mxCell>
        <mxCell id="MuJiTdrZBSFYBWUoVsTs-36" value="+ createSql(path: QString): SqlParse" style="text;strokeColor=none;fillColor=none;align=left;verticalAlign=top;spacingLeft=4;spacingRight=4;overflow=hidden;rotatable=0;points=[[0,0.5],[1,0.5]];portConstraint=eastwest;whiteSpace=wrap;html=1;" vertex="1" parent="MuJiTdrZBSFYBWUoVsTs-34">
          <mxGeometry y="52" width="330" height="26" as="geometry" />
        </mxCell>
        <mxCell id="MuJiTdrZBSFYBWUoVsTs-37" value="&lt;b&gt;AF* af = new TimeSeriesFacotry(path, type);&lt;/b&gt;&lt;div&gt;&lt;b&gt;JsonParse* jp = af-&amp;gt;createJsonParse();&lt;/b&gt;&lt;/div&gt;&lt;div&gt;&lt;b&gt;TimeSeries* data = jp-&amp;gt;parseJson();&lt;/b&gt;&lt;/div&gt;&lt;div&gt;&lt;b&gt;QChart* ch = new LineChart(*data)&lt;/b&gt;&lt;/div&gt;&lt;div&gt;&lt;b&gt;&lt;br&gt;&lt;/b&gt;&lt;/div&gt;&lt;div&gt;&lt;b&gt;Service(af, fileType,&amp;nbsp;&lt;/b&gt;&lt;/div&gt;" style="text;html=1;align=left;verticalAlign=middle;resizable=0;points=[];autosize=1;strokeColor=none;fillColor=none;fontSize=28;rotation=0;" vertex="1" parent="1">
          <mxGeometry x="-451.5" y="1345.5" width="603" height="214" as="geometry" />
        </mxCell>
        <mxCell id="US05RB8XNW3qb6KjYCwU-38" value="" style="rounded=0;whiteSpace=wrap;html=1;" vertex="1" parent="1">
          <mxGeometry x="1166" y="890" width="614" height="60" as="geometry" />
        </mxCell>
        <mxCell id="US05RB8XNW3qb6KjYCwU-51" style="edgeStyle=elbowEdgeStyle;rounded=0;orthogonalLoop=1;jettySize=auto;html=1;entryX=0;entryY=0.5;entryDx=0;entryDy=0;fontSize=12;startSize=8;endSize=12;dashed=1;endArrow=block;endFill=0;strokeWidth=3;" edge="1" parent="1" source="US05RB8XNW3qb6KjYCwU-39" target="US05RB8XNW3qb6KjYCwU-40">
          <mxGeometry relative="1" as="geometry" />
        </mxCell>
        <mxCell id="US05RB8XNW3qb6KjYCwU-39" value="ReadData" style="text;html=1;align=center;verticalAlign=middle;whiteSpace=wrap;rounded=0;" vertex="1" parent="1">
          <mxGeometry x="1216" y="907" width="60" height="30" as="geometry" />
        </mxCell>
        <mxCell id="US05RB8XNW3qb6KjYCwU-61" style="edgeStyle=elbowEdgeStyle;rounded=0;orthogonalLoop=1;jettySize=auto;html=1;fontSize=12;startSize=8;endSize=12;dashed=1;endArrow=block;endFill=0;strokeWidth=3;" edge="1" parent="1" source="US05RB8XNW3qb6KjYCwU-40" target="US05RB8XNW3qb6KjYCwU-41">
          <mxGeometry relative="1" as="geometry" />
        </mxCell>
        <mxCell id="US05RB8XNW3qb6KjYCwU-63" value="&lt;font style=&quot;font-size: 6px;&quot;&gt;QChart&lt;/font&gt;" style="edgeLabel;html=1;align=center;verticalAlign=middle;resizable=0;points=[];fontSize=12;labelBackgroundColor=none;" vertex="1" connectable="0" parent="US05RB8XNW3qb6KjYCwU-61">
          <mxGeometry x="-0.1729" y="2" relative="1" as="geometry">
            <mxPoint x="11" y="-3" as="offset" />
          </mxGeometry>
        </mxCell>
        <mxCell id="US05RB8XNW3qb6KjYCwU-40" value="GetQChartView" style="text;html=1;align=center;verticalAlign=middle;whiteSpace=wrap;rounded=0;" vertex="1" parent="1">
          <mxGeometry x="1405" y="907" width="93" height="30" as="geometry" />
        </mxCell>
        <mxCell id="US05RB8XNW3qb6KjYCwU-41" value="DrawChart" style="text;html=1;align=center;verticalAlign=middle;whiteSpace=wrap;rounded=0;" vertex="1" parent="1">
          <mxGeometry x="1670" y="907" width="60" height="30" as="geometry" />
        </mxCell>
        <mxCell id="US05RB8XNW3qb6KjYCwU-43" value="" style="shape=offPageConnector;whiteSpace=wrap;html=1;" vertex="1" parent="1">
          <mxGeometry x="1166" y="859" width="160" height="40" as="geometry" />
        </mxCell>
        <mxCell id="US05RB8XNW3qb6KjYCwU-44" value="JSON" style="rounded=0;whiteSpace=wrap;html=1;" vertex="1" parent="1">
          <mxGeometry x="1246" y="787" width="80" height="37" as="geometry" />
        </mxCell>
        <mxCell id="US05RB8XNW3qb6KjYCwU-45" value="SQL" style="rounded=0;whiteSpace=wrap;html=1;" vertex="1" parent="1">
          <mxGeometry x="1166" y="787" width="80" height="37" as="geometry" />
        </mxCell>
        <mxCell id="US05RB8XNW3qb6KjYCwU-46" value="" style="shape=offPageConnector;whiteSpace=wrap;html=1;" vertex="1" parent="1">
          <mxGeometry x="1166" y="745" width="160" height="33" as="geometry" />
        </mxCell>
        <mxCell id="US05RB8XNW3qb6KjYCwU-47" value="TimeSeriesP" style="rounded=0;whiteSpace=wrap;html=1;" vertex="1" parent="1">
          <mxGeometry x="1166" y="684" width="80" height="36" as="geometry" />
        </mxCell>
        <mxCell id="US05RB8XNW3qb6KjYCwU-50" value="CoordSeriesP" style="rounded=0;whiteSpace=wrap;html=1;" vertex="1" parent="1">
          <mxGeometry x="1246" y="684" width="80" height="36" as="geometry" />
        </mxCell>
        <mxCell id="US05RB8XNW3qb6KjYCwU-52" value="&lt;font style=&quot;font-size: 6px;&quot;&gt;fileData&lt;/font&gt;" style="text;html=1;align=center;verticalAlign=middle;resizable=0;points=[];autosize=1;strokeColor=none;fillColor=none;fontSize=16;" vertex="1" parent="1">
          <mxGeometry x="1309" y="899" width="38" height="31" as="geometry" />
        </mxCell>
        <mxCell id="US05RB8XNW3qb6KjYCwU-53" value="" style="shape=offPageConnector;whiteSpace=wrap;html=1;" vertex="1" parent="1">
          <mxGeometry x="1350" y="859" width="274" height="40" as="geometry" />
        </mxCell>
        <mxCell id="US05RB8XNW3qb6KjYCwU-54" value="CoordSeriesChart" style="rounded=0;whiteSpace=wrap;html=1;" vertex="1" parent="1">
          <mxGeometry x="1486" y="792.25" width="138" height="37" as="geometry" />
        </mxCell>
        <mxCell id="US05RB8XNW3qb6KjYCwU-55" value="TimeSeriesChart" style="rounded=0;whiteSpace=wrap;html=1;" vertex="1" parent="1">
          <mxGeometry x="1350" y="792.25" width="136" height="37" as="geometry" />
        </mxCell>
        <mxCell id="US05RB8XNW3qb6KjYCwU-57" value="Line" style="rounded=0;whiteSpace=wrap;html=1;" vertex="1" parent="1">
          <mxGeometry x="1350" y="756.25" width="68" height="36" as="geometry" />
        </mxCell>
        <mxCell id="US05RB8XNW3qb6KjYCwU-58" value="Histogram" style="rounded=0;whiteSpace=wrap;html=1;" vertex="1" parent="1">
          <mxGeometry x="1418" y="756.25" width="68" height="36" as="geometry" />
        </mxCell>
        <mxCell id="US05RB8XNW3qb6KjYCwU-60" value="Area" style="rounded=0;whiteSpace=wrap;html=1;" vertex="1" parent="1">
          <mxGeometry x="1486" y="756.25" width="138" height="36" as="geometry" />
        </mxCell>
        <mxCell id="US05RB8XNW3qb6KjYCwU-64" value="Chart" style="rounded=0;whiteSpace=wrap;html=1;" vertex="1" parent="1">
          <mxGeometry x="1350" y="827.5" width="274" height="31.5" as="geometry" />
        </mxCell>
        <mxCell id="US05RB8XNW3qb6KjYCwU-65" value="FileRead" style="rounded=0;whiteSpace=wrap;html=1;" vertex="1" parent="1">
          <mxGeometry x="1166" y="824" width="160" height="35" as="geometry" />
        </mxCell>
        <mxCell id="US05RB8XNW3qb6KjYCwU-66" value="ParseStrategy" style="rounded=0;whiteSpace=wrap;html=1;" vertex="1" parent="1">
          <mxGeometry x="1166" y="720" width="160" height="29" as="geometry" />
        </mxCell>
        <mxCell id="US05RB8XNW3qb6KjYCwU-67" value="&lt;div style=&quot;text-align: left;&quot;&gt;&lt;span style=&quot;background-color: transparent; color: light-dark(rgb(0, 0, 0), rgb(255, 255, 255));&quot;&gt;&lt;b style=&quot;&quot;&gt;&lt;font style=&quot;font-size: 23px;&quot;&gt;ParseStrat* ps = new TimeSeriesP()&lt;/font&gt;&lt;/b&gt;&lt;/span&gt;&lt;/div&gt;&lt;div style=&quot;text-align: left;&quot;&gt;&lt;font style=&quot;font-size: 23px;&quot;&gt;&lt;b&gt;FileRead* fr = new SQL(ps);&lt;/b&gt;&lt;/font&gt;&lt;/div&gt;&lt;div style=&quot;text-align: left;&quot;&gt;&lt;font style=&quot;font-size: 23px;&quot;&gt;&lt;b&gt;fr-&amp;gt;extract(file);&lt;/b&gt;&lt;/font&gt;&lt;/div&gt;&lt;div style=&quot;text-align: left;&quot;&gt;&lt;font style=&quot;font-size: 21px;&quot;&gt;&lt;br&gt;&lt;/font&gt;&lt;/div&gt;" style="text;html=1;align=center;verticalAlign=middle;resizable=0;points=[];autosize=1;strokeColor=none;fillColor=none;fontSize=16;" vertex="1" parent="1">
          <mxGeometry x="874" y="1064" width="406" height="120" as="geometry" />
        </mxCell>
        <mxCell id="iixP_AkkabVmqlr8zcf--1" style="edgeStyle=elbowEdgeStyle;rounded=0;orthogonalLoop=1;jettySize=auto;html=1;entryX=0.502;entryY=0.958;entryDx=0;entryDy=0;entryPerimeter=0;fontSize=12;startSize=8;endSize=12;dashed=1;endArrow=block;endFill=0;strokeWidth=3;" edge="1" parent="1" source="MuJiTdrZBSFYBWUoVsTs-17" target="MuJiTdrZBSFYBWUoVsTs-27">
          <mxGeometry relative="1" as="geometry">
            <Array as="points">
              <mxPoint x="227" y="1024" />
            </Array>
          </mxGeometry>
        </mxCell>
        <mxCell id="iixP_AkkabVmqlr8zcf--2" style="edgeStyle=elbowEdgeStyle;rounded=0;orthogonalLoop=1;jettySize=auto;html=1;entryX=0.547;entryY=0.958;entryDx=0;entryDy=0;entryPerimeter=0;fontSize=12;startSize=8;endSize=12;dashed=1;endArrow=block;endFill=0;strokeWidth=3;" edge="1" parent="1" source="MuJiTdrZBSFYBWUoVsTs-23" target="MuJiTdrZBSFYBWUoVsTs-27">
          <mxGeometry relative="1" as="geometry">
            <Array as="points">
              <mxPoint x="242" y="1116" />
            </Array>
          </mxGeometry>
        </mxCell>
        <mxCell id="iixP_AkkabVmqlr8zcf--3" style="edgeStyle=elbowEdgeStyle;rounded=0;orthogonalLoop=1;jettySize=auto;html=1;entryX=0.538;entryY=1.059;entryDx=0;entryDy=0;entryPerimeter=0;fontSize=12;startSize=8;endSize=12;dashed=1;endArrow=block;endFill=0;strokeWidth=3;" edge="1" parent="1" source="MuJiTdrZBSFYBWUoVsTs-14" target="MuJiTdrZBSFYBWUoVsTs-30">
          <mxGeometry relative="1" as="geometry">
            <Array as="points">
              <mxPoint x="658" y="1026" />
            </Array>
          </mxGeometry>
        </mxCell>
        <mxCell id="iixP_AkkabVmqlr8zcf--4" style="edgeStyle=elbowEdgeStyle;rounded=0;orthogonalLoop=1;jettySize=auto;html=1;entryX=0.462;entryY=1.038;entryDx=0;entryDy=0;entryPerimeter=0;fontSize=12;startSize=8;endSize=12;dashed=1;endArrow=block;endFill=0;strokeWidth=3;" edge="1" parent="1" source="MuJiTdrZBSFYBWUoVsTs-20" target="MuJiTdrZBSFYBWUoVsTs-30">
          <mxGeometry relative="1" as="geometry">
            <Array as="points">
              <mxPoint x="632" y="1108" />
            </Array>
          </mxGeometry>
        </mxCell>
      </root>
    </mxGraphModel>
  </diagram>
</mxfile>
